Coordinates
version=1
nRows=6
nColumns=34
inDegrees=yes

Units are S.I. units (second, meters, Newtons, ...)
If the header above contains a line with 'inDegrees', this indicates whether rotational values are in degrees (yes) or radians (no).

endheader
time	pelvis_tilt	pelvis_list	pelvis_rotation	pelvis_tx	pelvis_ty	pelvis_tz	hip_flexion_r	hip_adduction_r	hip_rotation_r	knee_angle_r	ankle_angle_r	subtalar_angle_r	mtp_angle_r	hip_flexion_l	hip_adduction_l	hip_rotation_l	knee_angle_l	ankle_angle_l	subtalar_angle_l	mtp_angle_l	lumbar_extension	lumbar_bending	lumbar_rotation	arm_flex_r	arm_add_r	arm_rot_r	elbow_flex_r	pro_sup_r	arm_flex_l	arm_add_l	arm_rot_l	elbow_flex_l	pro_sup_l
      8.96666670	      1.46849832	    -10.77034432	    -57.29282816	      2.20686957	      1.05206743	      4.07091149	    -26.95012551	      2.07352663	      6.23959100	      0.68142359	     22.25804420	      6.09512112	      0.00000000	    -11.34917534	     -4.73715530	     -2.30513438	     25.91211659	      4.95519743	     -5.96542245	      0.00000000	    -11.43709568	      5.24713197	     -0.58621936	     10.76908632	     -4.59305183	     12.15702893	     19.37824473	    118.79340182	     10.34200518	     -5.32123716	      7.62881049	     15.35323703	    109.24178652
      8.98333330	      1.71038213	    -10.21389134	    -57.45278009	      2.20845679	      1.05204740	      4.07190166	    -27.03363614	      1.40985712	      6.16799532	      0.00000000	     21.97365194	      6.08908488	      0.00000000	    -11.15670834	     -4.22078062	     -2.28499462	     25.74231055	      3.55281838	     -5.53856229	      0.00000000	    -11.14733494	      4.70183899	     -0.22121331	     10.71498354	     -4.84476283	     12.47244081	     19.62383412	    118.81900918	     10.35616649	     -5.13577762	      7.51687681	     15.60217203	    109.21501640
      9.00000000	      2.12656641	     -9.48316015	    -57.91259147	      2.21050860	      1.05184710	      4.07400293	    -26.78209470	      0.36092776	      6.02381497	      0.00000000	     22.44242751	      6.42345564	      0.00000000	    -11.60937126	     -3.20576425	     -1.88555947	     24.61766432	      3.06540039	     -4.76685152	      0.00000000	    -10.64094614	      3.89353925	      0.51975453	     10.36343702	     -5.21029399	     13.03046574	     19.89869233	    118.89119673	     10.17924929	     -4.76992524	      7.32852085	     16.05320904	    109.16223063
      9.01666670	      2.98422685	     -9.33192229	    -58.58439803	      2.21257481	      1.05268918	      4.07678494	    -27.31876047	     -0.89746032	      5.08512182	      0.00000000	     23.03092640	      8.23835356	      0.00000000	    -13.49069124	     -2.05398962	     -1.92896426	     22.31571163	      2.99330391	     -3.87324882	      0.00000000	    -10.88125146	      2.95965109	      1.17389988	     10.38221426	     -5.46181202	     14.05131973	     19.99777850	    118.89390394	      9.88297912	     -4.47394526	      6.47595686	     16.61152788	    108.97627501
      9.03333330	      3.60959452	     -8.81031175	    -58.96233570	      2.21529768	      1.05264900	      4.07997366	    -27.44670634	     -1.99259455	      4.34890870	      0.00000000	     23.53303131	      9.33463589	      0.00000000	    -15.24069635	     -0.94682233	     -1.45124364	     19.66124151	      5.00686245	     -2.30697961	      0.00000000	    -10.33015965	      1.99132555	      1.40801586	     10.03638821	     -5.53957865	     13.97909520	     20.17691219	    118.64491253	      9.26711237	     -4.29261422	      5.25740214	     17.08985309	    108.76766486
      9.05000000	      4.10044149	     -8.47062520	    -59.68137145	      2.21807436	      1.05220149	      4.08446881	    -27.67592060	     -3.01172505	      4.22714738	      0.00000000	     23.98894773	     10.05172764	      0.00000000	    -17.74999930	      0.12581553	     -0.52664642	     16.23096602	      8.74709250	     -0.60279647	      0.00000000	     -9.48494589	      1.19207742	      1.96790218	      9.36727093	     -5.55375109	     13.39464386	     20.26879117	    118.38411708	      8.38218799	     -4.08371027	      3.91604334	     17.45045428	    108.55926077
